<svg width="6" height="10" viewBox="0 0 6 10" fill="currentColor" xmlns="http://www.w3.org/2000/svg">
<path fill-rule="evenodd" clip-rule="evenodd" d="M0.645917 0.646101C0.599354 0.692547 0.562411 0.747723 0.537204 0.808468C0.511998 0.869213 0.499023 0.934334 0.499023 1.0001C0.499023 1.06587 0.511998 1.13099 0.537204 1.19173C0.562411 1.25248 0.599354 1.30766 0.645917 1.3541L4.29292 5.0001L0.645917 8.6461C0.552031 8.73999 0.499286 8.86733 0.499286 9.0001C0.499286 9.13288 0.552031 9.26021 0.645917 9.3541C0.739804 9.44799 0.867141 9.50073 0.999917 9.50073C1.13269 9.50073 1.26003 9.44799 1.35392 9.3541L5.35392 5.3541C5.40048 5.30765 5.43742 5.25248 5.46263 5.19173C5.48784 5.13099 5.50081 5.06587 5.50081 5.0001C5.50081 4.93433 5.48784 4.86921 5.46263 4.80847C5.43742 4.74772 5.40048 4.69255 5.35392 4.6461L1.35392 0.646101C1.30747 0.599538 1.2523 0.562595 1.19155 0.537389C1.13081 0.512182 1.06568 0.499207 0.999917 0.499207C0.93415 0.499207 0.869028 0.512182 0.808283 0.537389C0.747538 0.562595 0.692363 0.599538 0.645917 0.646101Z"/>
</g>
<defs>

</defs>
</svg>
